<svg width="31" height="31" viewBox="0 0 31 31" fill="none" xmlns="http://www.w3.org/2000/svg">
<g id="instagram 4">
<path id="Vector" d="M15.4985 3.43591C19.5065 3.43591 19.9775 3.45091 21.5615 3.52441C23.024 3.59191 23.819 3.83491 24.344 4.04041C25.0475 4.31341 25.5455 4.63742 26.0705 5.16242C26.5955 5.68742 26.9195 6.18691 27.191 6.88741C27.398 7.41691 27.644 8.21191 27.71 9.67291C27.782 11.2554 27.797 11.7294 27.797 15.7344C27.797 19.7394 27.782 20.2134 27.71 21.7959C27.644 23.2584 27.398 24.0519 27.191 24.5799C26.9195 25.2819 26.5955 25.7799 26.0705 26.3064C25.544 26.8299 25.046 27.1554 24.344 27.4284C23.8175 27.6339 23.0225 27.8769 21.5615 27.9444C19.9775 28.0164 19.5065 28.0329 15.4985 28.0329C11.4935 28.0329 11.0195 28.0179 9.4385 27.9444C7.973 27.8769 7.181 27.6339 6.653 27.4284C5.9525 27.1554 5.4545 26.8314 4.9295 26.3064C4.4045 25.7799 4.0805 25.2819 3.806 24.5799C3.602 24.0519 3.3575 23.2569 3.29 21.7959C3.218 20.2134 3.203 19.7394 3.203 15.7344C3.203 11.7294 3.218 11.2554 3.29 9.67291C3.3575 8.21041 3.602 7.41691 3.806 6.88741C4.0805 6.18691 4.4045 5.68742 4.9295 5.16242C5.456 4.63892 5.954 4.31341 6.653 4.04041C7.1825 3.83491 7.9745 3.59191 9.4385 3.52441C11.0195 3.45241 11.4935 3.43591 15.4985 3.43591ZM15.4985 0.732911C11.4245 0.732911 10.9145 0.752406 9.3155 0.824406C7.718 0.897906 6.626 1.15141 5.6735 1.52041C4.685 1.90441 3.851 2.41741 3.017 3.25141C2.1815 4.08541 1.67 4.92091 1.2875 5.90791C0.9155 6.86191 0.662 7.95391 0.59 9.54991C0.515 11.1504 0.5 11.6619 0.5 15.7359C0.5 19.8099 0.515 20.3199 0.59 21.9219C0.662 23.5179 0.9155 24.6099 1.2875 25.5624C1.67 26.5479 2.183 27.3864 3.017 28.2189C3.851 29.0514 4.685 29.5659 5.6735 29.9484C6.626 30.3204 7.7165 30.5739 9.3155 30.6459C10.9145 30.7194 11.4245 30.7374 15.4985 30.7374C19.5755 30.7374 20.0855 30.7194 21.683 30.6459C23.279 30.5724 24.371 30.3189 25.328 29.9484C26.312 29.5659 27.1505 29.0514 27.9815 28.2189C28.817 27.3849 29.3285 26.5494 29.711 25.5624C30.086 24.6099 30.3365 23.5179 30.4115 21.9219C30.4835 20.3214 30.5015 19.8099 30.5015 15.7359C30.5015 11.6619 30.4835 11.1519 30.4115 9.54991C30.3365 7.95391 30.086 6.86191 29.711 5.90791C29.3285 4.92241 28.8155 4.08541 27.9815 3.25141C27.1505 2.41591 26.3135 1.90441 25.328 1.52041C24.371 1.14991 23.2805 0.896406 21.683 0.824406C20.0855 0.752406 19.5755 0.732911 15.4985 0.732911Z" fill="white"/>
<path id="Vector_2" d="M15.4985 8.03027C11.243 8.03027 7.79749 11.4788 7.79749 15.7343C7.79749 19.9868 11.243 23.4368 15.4985 23.4368C19.754 23.4368 23.2025 19.9883 23.2025 15.7343C23.2025 11.4803 19.754 8.03027 15.4985 8.03027ZM15.4985 20.7338C12.737 20.7338 10.4975 18.4943 10.4975 15.7343C10.4975 12.9728 12.737 10.7348 15.4985 10.7348C18.263 10.7348 20.4995 12.9728 20.4995 15.7343C20.4995 18.4943 18.263 20.7338 15.4985 20.7338Z" fill="white"/>
<path id="Vector_3" d="M23.5055 9.52927C24.5004 9.52927 25.307 8.72271 25.307 7.72777C25.307 6.73283 24.5004 5.92627 23.5055 5.92627C22.5105 5.92627 21.704 6.73283 21.704 7.72777C21.704 8.72271 22.5105 9.52927 23.5055 9.52927Z" fill="white"/>
</g>
</svg>
