<svg width="33" height="27" viewBox="0 0 33 27" fill="none" xmlns="http://www.w3.org/2000/svg">
<path id="twitter 5" d="M32.25 3.96502C31.089 4.47952 29.8455 4.82602 28.5375 4.98352C29.871 4.18252 30.8955 2.91652 31.3785 1.40752C30.1305 2.14852 28.746 2.68702 27.276 2.97502C26.097 1.71952 24.4185 0.936523 22.5585 0.936523C18.99 0.936523 16.095 3.83002 16.095 7.39852C16.095 7.90402 16.1505 8.39902 16.2615 8.87002C10.89 8.60002 6.13054 6.02752 2.94153 2.12002C2.38804 3.07252 2.06854 4.18252 2.06854 5.36752C2.06854 7.61002 3.21153 9.58702 4.94553 10.7465C3.88504 10.7135 2.88753 10.4225 2.01603 9.93802C2.01603 9.96502 2.01603 9.99202 2.01603 10.0205C2.01603 13.151 4.24353 15.761 7.20003 16.358C6.65853 16.505 6.08704 16.583 5.49753 16.583C5.08053 16.583 4.67554 16.5425 4.28104 16.4675C5.10154 19.034 7.48954 20.903 10.3155 20.9555C8.10604 22.688 5.31753 23.7215 2.29053 23.7215C1.76854 23.7215 1.25404 23.69 0.748535 23.63C3.60904 25.4645 7.00654 26.534 10.6545 26.534C22.542 26.534 29.0415 16.688 29.0415 8.14702C29.0415 7.86652 29.037 7.59052 29.025 7.31152C30.288 6.39952 31.3815 5.26252 32.25 3.96502Z" fill="white"/>
</svg>
