<svg width="33" height="24" viewBox="0 0 33 24" fill="none" xmlns="http://www.w3.org/2000/svg">
<path id="youtube x5F alt 5" d="M32.4285 3.93453C32.022 2.17953 30.5865 0.885033 28.86 0.691533C24.768 0.234033 20.6265 0.232533 16.5045 0.234033C12.3795 0.232533 8.2395 0.234033 4.146 0.691533C2.418 0.885033 0.984 2.17953 0.5805 3.93453C0.00600006 6.43353 -1.08719e-07 9.16053 -1.08719e-07 11.7345C-1.08719e-07 14.3085 -2.23517e-07 17.0355 0.5745 19.5345C0.9795 21.2895 2.4135 22.584 4.14 22.7775C8.232 23.235 12.3735 23.2365 16.4985 23.235C20.6205 23.2365 24.7635 23.235 28.851 22.7775C30.5805 22.584 32.0145 21.2895 32.4195 19.5345C32.997 17.0355 33 14.3085 33 11.7345C33 9.16053 33 6.43353 32.4285 3.93453ZM13.0395 16.233V7.08303L21.762 11.6565L13.0395 16.233Z" fill="white"/>
</svg>
